<svg xmlns="http://www.w3.org/2000/svg" width="920" height="150" viewBox="0 0 920 150">
<rect x="0" y="0" width="920" height="150" fill="#FFFFFF"/>
<text x="10" y="34" font-family="JetBrains Mono, Menlo, monospace" font-size="11" fill="#334E68">locusq_calibration_sweep_capture</text>
<rect x="210" y="20" width="620" height="20" fill="#E6EAF0" rx="4"/>
<rect x="210" y="20" width="620" height="20" fill="#486581" rx="4"/>
<text x="840" y="34" font-family="JetBrains Mono, Menlo, monospace" font-size="11" fill="#334E68">6000.0</text>
<text x="10" y="64" font-family="JetBrains Mono, Menlo, monospace" font-size="11" fill="#334E68">locusq_emit_dir_spatial_effect</text>
<rect x="210" y="50" width="620" height="20" fill="#E6EAF0" rx="4"/>
<rect x="210" y="50" width="620" height="20" fill="#486581" rx="4"/>
<text x="840" y="64" font-family="JetBrains Mono, Menlo, monospace" font-size="11" fill="#334E68">6000.0</text>
<text x="10" y="94" font-family="JetBrains Mono, Menlo, monospace" font-size="11" fill="#334E68">locusq_directivity_aim</text>
<rect x="210" y="80" width="620" height="20" fill="#E6EAF0" rx="4"/>
<rect x="210" y="80" width="620" height="20" fill="#486581" rx="4"/>
<text x="840" y="94" font-family="JetBrains Mono, Menlo, monospace" font-size="11" fill="#334E68">6000.0</text>
<text x="10" y="124" font-family="JetBrains Mono, Menlo, monospace" font-size="11" fill="#334E68">locusq_air_absorption_distance</text>
<rect x="210" y="110" width="620" height="20" fill="#E6EAF0" rx="4"/>
<rect x="210" y="110" width="413" height="20" fill="#486581" rx="4"/>
<text x="840" y="124" font-family="JetBrains Mono, Menlo, monospace" font-size="11" fill="#334E68">4000.0</text>
</svg>
