<svg xmlns="http://www.w3.org/2000/svg" width="920" height="220" viewBox="0 0 920 220">
<rect x="0" y="0" width="920" height="220" fill="#FFFFFF"/>
<text x="10" y="38" font-family="IBM Plex Sans, Segoe UI, sans-serif" font-size="13" fill="#1F2933">PASS</text>
<rect x="110" y="20" width="720" height="26" fill="#E6EAF0" rx="4"/>
<rect x="110" y="20" width="720" height="26" fill="#2A7F62" rx="4"/>
<text x="842" y="38" font-family="JetBrains Mono, Menlo, monospace" font-size="12" fill="#1F2933">3</text>
<text x="10" y="76" font-family="IBM Plex Sans, Segoe UI, sans-serif" font-size="13" fill="#1F2933">WARN</text>
<rect x="110" y="58" width="720" height="26" fill="#E6EAF0" rx="4"/>
<rect x="110" y="58" width="240" height="26" fill="#B7791F" rx="4"/>
<text x="842" y="76" font-family="JetBrains Mono, Menlo, monospace" font-size="12" fill="#1F2933">1</text>
<text x="10" y="114" font-family="IBM Plex Sans, Segoe UI, sans-serif" font-size="13" fill="#1F2933">FAIL</text>
<rect x="110" y="96" width="720" height="26" fill="#E6EAF0" rx="4"/>
<rect x="110" y="96" width="0" height="26" fill="#B83232" rx="4"/>
<text x="842" y="114" font-family="JetBrains Mono, Menlo, monospace" font-size="12" fill="#1F2933">0</text>
<text x="10" y="152" font-family="IBM Plex Sans, Segoe UI, sans-serif" font-size="13" fill="#1F2933">ERROR</text>
<rect x="110" y="134" width="720" height="26" fill="#E6EAF0" rx="4"/>
<rect x="110" y="134" width="0" height="26" fill="#7A1F1F" rx="4"/>
<text x="842" y="152" font-family="JetBrains Mono, Menlo, monospace" font-size="12" fill="#1F2933">0</text>
<text x="10" y="190" font-family="IBM Plex Sans, Segoe UI, sans-serif" font-size="13" fill="#1F2933">SKIP</text>
<rect x="110" y="172" width="720" height="26" fill="#E6EAF0" rx="4"/>
<rect x="110" y="172" width="0" height="26" fill="#5C6B73" rx="4"/>
<text x="842" y="190" font-family="JetBrains Mono, Menlo, monospace" font-size="12" fill="#1F2933">0</text>
</svg>
